<?xml version="1.0" encoding="iso-8859-1"?>
<!-- Generator: Adobe Illustrator 19.0.0, SVG Export Plug-In . SVG Version: 6.00 Build 0)  -->
<svg version="1.1" id="piechart" xmlns="http://www.w3.org/2000/svg" xmlns:xlink="http://www.w3.org/1999/xlink" x="0px" y="0px"
	 viewBox="0 0 480 480" style="enable-background:new 0 0 480 480;" xml:space="preserve">
<path d="M208,0C93.12,0.016,0.016,93.12,0,208c0.016,114.88,93.12,207.984,208,208
	c4.208,0,8.336-1.712,11.312-4.688S224,404.208,224,400V224h176c4.208,0,8.336-1.712,11.312-4.688S416,212.208,416,208
	C415.984,93.12,322.88,0.016,208,0z M32,208c0-48.656,19.68-92.544,51.552-124.448C115.456,51.68,159.344,32,208,32
	s92.544,19.68,124.448,51.552c28.336,28.352,46.928,66.224,50.736,108.448H208c-4.208,0-8.336,1.712-11.312,4.688
	S192,203.792,192,208v175.184c-42.224-3.808-80.096-22.4-108.448-50.736C51.68,300.544,32,256.656,32,208z"/>
<!-- <path style="fill:#ec8713" opacity="0.54" d="M272,464c106.032,0,192-85.968,192-192H272V464z"/> -->
<path d="M272,464v16c114.88-0.016,207.984-93.12,208-208c0-4.208-1.712-8.336-4.688-11.312
	C472.336,257.712,468.208,256,464,256H272c-4.208,0-8.336,1.712-11.312,4.688C257.712,263.664,256,267.792,256,272v192
	c0,4.208,1.712,8.336,4.688,11.312S267.792,480,272,480V464h16V288h176v-16h-16c0,48.656-19.68,92.544-51.552,124.448
	C364.544,428.32,320.656,448,272,448V464h16H272z"/>
<g>
</g>
<g>
</g>
<g>
</g>
<g>
</g>
<g>
</g>
<g>
</g>
<g>
</g>
<g>
</g>
<g>
</g>
<g>
</g>
<g>
</g>
<g>
</g>
<g>
</g>
<g>
</g>
<g>
</g>
</svg>
