<?xml version="1.0" encoding="iso-8859-1"?>
<!-- Generator: Adobe Illustrator 19.0.0, SVG Export Plug-In . SVG Version: 6.00 Build 0)  -->
<svg version="1.1" id="shapes" xmlns="http://www.w3.org/2000/svg" xmlns:xlink="http://www.w3.org/1999/xlink" x="0px" y="0px"
	 viewBox="0 0 512 512" style="enable-background:new 0 0 512 512;" xml:space="preserve">
<g>
	<g>
		<path d="M458.667,0H53.333C23.936,0,0,23.936,0,53.333v405.333C0,488.064,23.936,512,53.333,512h405.333
			C488.064,512,512,488.064,512,458.667V53.333C512,23.936,488.064,0,458.667,0z M64,96c0-17.643,14.357-32,32-32h106.667
			c17.643,0,32,14.357,32,32v106.667c0,17.643-14.357,32-32,32H96c-17.643,0-32-14.357-32-32V96z M222.187,384.405
			c5.568,17.749,11.968,47.637-3.285,59.179c-3.861,2.923-8.704,4.416-14.443,4.416c-14.763,0-34.56-10.645-44.459-16.597
			C150.101,437.355,130.304,448,115.541,448c-5.717,0-10.581-1.493-14.443-4.416c-15.232-11.541-8.853-41.429-3.285-59.179
			c-15.019-13.568-38.549-38.4-32.896-56.576c4.032-12.949,19.627-19.264,47.637-19.264c3.221,0,6.229,0.085,8.811,0.213
			C128.405,286.037,141.248,256,160,256s31.595,30.016,38.635,52.779c2.581-0.128,5.589-0.213,8.811-0.213
			c28.011,0,43.605,6.293,47.637,19.264C260.736,346.005,237.205,370.859,222.187,384.405z M416,448H309.333
			c-17.643,0-32-14.357-32-32c0-3.563,0.661-7.189,1.941-10.752c0.171-0.661,0.427-1.323,0.747-1.941
			c0,0,0.896-1.792,52.651-104.448c0.128-0.256,0.277-0.512,0.427-0.768c4.672-12.523,16.235-20.757,29.568-20.757
			c13.355,0,24.939,8.256,29.611,20.821c0.149,0.235,0.277,0.491,0.405,0.747l52.949,106.133C447.04,409.109,448,412.245,448,416
			C448,433.643,433.643,448,416,448z M362.667,234.667c-47.061,0-85.333-38.272-85.333-85.333S315.605,64,362.667,64
			S448,102.272,448,149.333C448,196.395,409.728,234.667,362.667,234.667z"/>
	</g>
</g>
<g>
</g>
<g>
</g>
<g>
</g>
<g>
</g>
<g>
</g>
<g>
</g>
<g>
</g>
<g>
</g>
<g>
</g>
<g>
</g>
<g>
</g>
<g>
</g>
<g>
</g>
<g>
</g>
<g>
</g>
</svg>
