<?xml version="1.0" encoding="iso-8859-1"?>
<!-- Generator: Adobe Illustrator 19.0.0, SVG Export Plug-In . SVG Version: 6.00 Build 0)  -->
<svg version="1.1" id="stopwatch" xmlns="http://www.w3.org/2000/svg" xmlns:xlink="http://www.w3.org/1999/xlink" x="0px" y="0px"
	 viewBox="0 0 511.983 511.983" style="enable-background:new 0 0 511.983 511.983;" xml:space="preserve">
<path d="M238.932,290.588c0,4.487,1.825,8.888,4.998,12.061s7.574,4.998,12.061,4.998h85.296
	c9.417,0,17.059-7.643,17.059-17.059s-7.643-17.059-17.059-17.059h-68.237V171.173c0-9.417-7.643-17.059-17.059-17.059
	s-17.059,7.643-17.059,17.059V290.588z"/>
<path d="M448.642,132.056c6.67,6.67,17.469,6.67,24.122,0s6.653-17.469,0-24.122l-34.119-34.119
	c-6.67-6.653-17.469-6.653-24.122,0c-6.653,6.67-6.653,17.469,0,24.122l4.998,4.998l-19.669,19.669
	c-34.596-29.854-78.353-49.335-126.46-53.174c0-0.222,0.119-0.392,0.119-0.597V34.716c0-0.222-0.119-0.392-0.119-0.597h33.777
	c9.417,0,17.059-7.643,17.059-17.059S316.586,0,307.169,0H204.814c-9.417-0.017-17.059,7.625-17.059,17.042
	s7.643,17.059,17.059,17.059h34.716c0,0.205-0.119,0.392-0.119,0.597v34.119c0,0.188,0.102,0.341,0.102,0.529
	C124.754,77.841,34.238,173.51,34.221,290.434c0.017,122.486,99.285,221.532,221.771,221.549
	c122.486-0.017,221.754-102.577,221.771-221.992c0-53.907-20.369-104.164-53.839-143.213l19.721-19.721L448.642,132.056z
	 M443.644,289.991c-0.017,51.178-20.983,98.978-54.965,132.994c-34.016,33.982-80.81,55.101-132.687,55.119
	c-51.877-0.017-98.671-20.898-132.687-54.897c-33.982-34.016-54.948-80.776-54.965-132.653
	c0.017-51.877,20.983-98.654,54.965-132.67c34.016-33.982,80.81-54.948,132.687-54.965c51.621,0.017,98.21,20.505,132.175,54.214
	c0.205,0.239,0.29,0.546,0.512,0.768c0.205,0.205,0.478,0.273,0.699,0.461C422.934,192.309,443.626,239.171,443.644,289.991z"/>
<g>
</g>
<g>
</g>
<g>
</g>
<g>
</g>
<g>
</g>
<g>
</g>
<g>
</g>
<g>
</g>
<g>
</g>
<g>
</g>
<g>
</g>
<g>
</g>
<g>
</g>
<g>
</g>
<g>
</g>
</svg>
